  <svg
    xmlns="http://www.w3.org/2000/svg"
    xmlns:xlink="http://www.w3.org/1999/xlink"
    version="1.1"
    x="0px"
    y="0px"
    viewBox="0 0 100 100"
    enable-background="new 0 0 100 100"
    xml:space="preserve"
    fill="white"
  >
    <rect width="100%" height="100%" fill="#673AB7"/>
    <path
      fill-rule="evenodd"
      clip-rule="evenodd"
      d="M6.067,57.015l36.314-0.049L69.783,9.491  c13.083,5.667,21.249,17.398,24.115,31.585l-36.592-0.031L29.671,88.936c-12.76-5.9-21.815-17.94-23.769-32.15 M65.163,7.247  c-4.695-1.174-9.611-1.911-14.98-1.911c-21.452,0-39.113,15.361-43.972,35.77l39.18-0.018L65.163,7.247L65.163,7.247z   M34.061,91.311c4.869,2.382,10.389,3.392,16.122,3.352c22.293-0.156,40.861-16.026,43.915-37.41H53.986L34.061,91.311  L34.061,91.311z"
    />
  </svg>

